<?xml version="1.0" standalone="no"?>
<!DOCTYPE svg PUBLIC "-//W3C//DTD SVG 20010904//EN"
 "http://www.w3.org/TR/2001/REC-SVG-20010904/DTD/svg10.dtd">
<svg version="1.0" xmlns="http://www.w3.org/2000/svg"
 width="1024.000000pt" height="1024.000000pt" viewBox="0 0 1024.000000 1024.000000"
 preserveAspectRatio="xMidYMid meet">
<metadata>
Created by potrace 1.11, written by Peter Selinger 2001-2013
</metadata>
<g transform="translate(0.000000,1024.000000) scale(0.100000,-0.100000)"
fill="#000000" stroke="none">
<path d="M4210 9112 c-17 -20 -30 -47 -30 -59 0 -13 33 -63 80 -120 45 -54 98
-122 118 -152 l37 -54 0 -161 c0 -154 -11 -382 -21 -429 -2 -12 -7 -49 -9 -82
-3 -33 -10 -87 -15 -120 -8 -55 -14 -98 -25 -172 -4 -33 -15 -98 -21 -133 -2
-14 -8 -52 -14 -85 -8 -50 -39 -224 -65 -360 -16 -85 -48 -211 -56 -222 -10
-11 -71 -28 -134 -37 -55 -8 -120 -18 -146 -22 -34 -5 -89 -12 -159 -19 -30
-3 -71 -7 -90 -10 -19 -2 -71 -7 -115 -10 -44 -3 -105 -8 -135 -11 -30 -3
-158 -6 -284 -8 -322 -4 -399 13 -577 130 -77 51 -132 63 -177 40 -48 -25 -60
-82 -32 -157 25 -69 74 -130 223 -284 167 -172 253 -228 349 -226 33 0 62 2
66 5 4 2 36 7 72 10 36 4 76 9 90 11 14 3 63 7 110 10 197 13 211 15 430 41
25 3 56 7 70 10 14 2 50 6 80 10 30 3 62 7 70 9 15 4 101 13 189 20 l44 3 -6
-76 c-5 -65 -26 -239 -42 -347 -2 -16 -7 -64 -11 -105 -3 -41 -8 -82 -9 -90
-2 -8 -6 -46 -9 -85 -4 -38 -9 -88 -11 -110 -3 -22 -7 -76 -10 -120 -3 -44 -8
-100 -10 -125 -10 -101 -22 -299 -31 -539 -3 -91 -7 -171 -8 -179 -2 -8 -71
-50 -155 -93 -183 -95 -394 -221 -629 -376 -171 -112 -448 -315 -487 -357 -11
-12 -33 -31 -50 -44 -87 -68 -452 -427 -550 -542 -97 -114 -238 -352 -282
-475 -6 -16 -14 -39 -19 -50 -20 -55 -62 -221 -69 -274 -3 -25 -10 -73 -14
-105 -8 -61 -7 -347 2 -401 3 -16 9 -50 12 -75 43 -278 170 -439 394 -499 140
-38 266 -32 476 24 257 68 444 140 720 274 215 106 339 176 590 336 232 148
289 175 305 145 5 -8 25 -62 45 -120 20 -58 43 -118 50 -135 7 -16 23 -55 36
-85 46 -112 122 -205 197 -244 92 -47 215 73 262 256 35 134 15 270 -76 517
-111 301 -106 266 -48 337 47 57 93 111 124 143 8 9 74 86 146 171 393 468
860 1116 1292 1793 75 117 86 129 120 122 10 -2 59 -6 108 -9 646 -46 1073
-279 1275 -696 112 -231 134 -367 134 -825 -1 -289 -11 -368 -66 -542 -35
-110 -129 -300 -204 -412 -50 -75 -202 -238 -305 -326 -30 -26 -67 -58 -82
-71 -51 -44 -253 -191 -343 -250 -268 -174 -562 -320 -875 -433 -213 -77 -265
-103 -290 -143 -25 -41 -19 -64 27 -105 38 -35 71 -41 118 -23 14 5 36 12 49
14 12 2 67 16 122 31 54 15 117 31 139 37 22 5 108 30 190 55 616 188 1081
420 1420 706 140 118 326 326 408 455 15 23 38 59 51 80 72 112 185 394 211
529 22 113 37 214 44 290 7 87 6 409 -2 448 -3 11 -8 45 -12 75 -52 400 -257
744 -596 997 -224 168 -441 268 -756 349 -127 32 -145 36 -223 49 -19 3 -46 7
-60 10 -14 2 -50 7 -80 10 -30 3 -66 8 -80 10 -24 4 -55 7 -225 21 -81 6 -105
15 -105 40 0 8 -5 22 -10 32 -6 9 -35 81 -64 159 -74 191 -123 289 -172 340
-45 47 -65 52 -93 24 -20 -20 -27 -61 -36 -191 -7 -100 -15 -189 -20 -220 -2
-14 -7 -45 -10 -70 -4 -25 -14 -60 -22 -78 -19 -40 -61 -54 -273 -87 -65 -10
-85 -14 -254 -50 -93 -20 -176 -38 -185 -40 -74 -15 -392 -109 -546 -161 -104
-36 -203 -69 -219 -74 l-28 -9 6 147 c4 81 9 167 11 192 3 25 7 92 10 150 3
58 8 116 10 130 2 14 7 66 10 115 3 50 8 101 10 115 2 14 6 59 10 100 4 41 8
86 10 100 2 14 6 52 10 85 3 33 8 71 10 85 3 14 7 48 11 75 14 119 47 296 64
341 5 13 20 26 32 29 28 6 158 31 213 40 22 4 50 9 63 11 12 2 32 6 45 8 12 2
40 7 62 11 22 3 74 13 115 21 41 7 84 15 95 17 11 2 31 7 45 10 14 3 63 13
110 22 47 8 96 18 110 20 14 3 48 9 75 14 28 5 93 19 145 31 52 12 106 24 120
26 14 2 36 7 50 10 14 3 34 8 45 10 20 4 29 6 100 23 22 5 51 12 65 15 14 3
34 7 45 9 102 24 408 111 462 133 114 45 182 96 184 137 1 12 2 29 3 37 2 23
-29 83 -56 105 -82 71 -207 131 -338 163 -107 26 -159 33 -265 33 -92 0 -102
-3 -253 -85 -94 -51 -206 -91 -397 -142 -124 -32 -532 -130 -585 -140 -14 -2
-31 -7 -39 -10 -23 -8 -84 -18 -116 -18 -34 -1 -35 4 -21 104 10 69 7 48 55
300 17 85 32 166 35 180 2 14 16 81 31 150 14 69 27 134 29 145 10 52 80 358
96 420 27 101 29 124 14 181 -29 113 -154 280 -297 396 -75 61 -246 144 -390
188 l-57 18 -30 -36z m1550 -4214 c-1 -72 -541 -882 -829 -1243 -31 -38 -59
-74 -64 -80 -85 -114 -324 -385 -338 -385 -11 0 -27 63 -33 130 -16 162 -17
171 -42 650 -3 58 -7 207 -9 332 l-4 226 162 67 c267 111 398 157 591 211 72
20 137 37 145 39 31 7 296 64 316 68 11 3 39 5 63 6 37 1 42 -1 42 -21z
m-1771 -670 c9 -361 37 -860 56 -988 2 -14 7 -54 10 -90 4 -36 8 -76 10 -90 2
-14 6 -48 9 -76 4 -28 9 -61 11 -75 3 -13 8 -60 11 -105 l6 -80 -39 -32 c-156
-123 -683 -414 -956 -527 -211 -87 -402 -123 -638 -119 -161 2 -217 19 -256
77 -33 48 -43 109 -39 237 10 296 102 539 304 795 53 67 288 308 362 371 218
185 364 292 700 515 155 102 259 166 355 218 33 18 64 37 70 42 19 18 22 7 24
-73z"/>
</g>
</svg>
